<?xml version="1.0" encoding="utf-8"?>
<!-- Generator: Adobe Illustrator 24.0.1, SVG Export Plug-In . SVG Version: 6.00 Build 0)  -->
<svg version="1.1" xmlns="http://www.w3.org/2000/svg" xmlns:xlink="http://www.w3.org/1999/xlink" x="0px" y="0px"
	 viewBox="0 0 500 500" style="enable-background:new 0 0 500 500;" xml:space="preserve">
<style type="text/css">
	.st0{fill:#EAF1FD;}
	.st1{fill:#C9D2DE;}
	.st2{clip-path:url(#SVGID_2_);}
	.st3{fill:#C9D1F8;}
	.st4{fill:#C5CDF6;}
	.st5{fill:#E1E5FA;}
	.st6{fill:#C2CBF5;}
	.st7{fill:#277C38;}
	.st8{fill:#F0F0FB;}
	.st9{fill:#FEFEFE;}
	.st10{fill:#B1B9DE;}
	.st11{fill:#FE8B97;}
	.st12{fill:#F7A683;}
	.st13{fill:#B67A62;}
	.st14{fill:#6B758B;}
	.st15{fill:#954C39;}
	.st16{fill:#6A2F29;}
	.st17{fill:#4C5463;}
	.st18{fill:#B47156;}
	.st19{fill:#5E759B;}
	.st20{fill:#815546;}
	.st21{fill:#7B8AD2;}
	.st22{fill:#6C1B90;}
	.st23{fill:#551273;}
	.st24{fill:#73492D;}
	.st25{fill:#EFEFEF;}
	.st26{fill:#6D422A;}
	.st27{fill:#FFCCA9;}
	.st28{fill:#F9BE9F;}
	.st29{fill:#E8B1DE;}
	.st30{fill:#76B39D;}
	.st31{fill:#FDFDFD;}
	.st32{fill:#7A382B;}
	.st33{fill:#28364B;}
	.st34{fill:#43546F;}
</style>
<g id="BACKGROUND">
	<rect x="0" y="0" class="st0" width="500.01" height="499.99"/>
</g>
<g id="OBJECTS">
	<ellipse class="st1" cx="250" cy="440.27" rx="219.47" ry="29.47"/>
	<g>
		<defs>
			<rect id="SVGID_1_" x="0" y="0" width="500.01" height="499.99"/>
		</defs>
		<clipPath id="SVGID_2_">
			<use xlink:href="#SVGID_1_"  style="overflow:visible;"/>
		</clipPath>
		<g class="st2">
			<path class="st3" d="M96.97,386.44c11.99,6.16,26.82,7.91,42.19,5.26c4.21-0.72,8.49-1.29,12.55-2.91
				c2.12-0.85,3.22-1.65,3.48-4.19c3.73-35.62-20.33-70.4-58.12-74.78c-11.73-1.36-23.31-0.24-34.91,1.15
				c-2.02,0.24-3.54,0.53-3.01,3.31c2.93,15.31,5.64,30.66,12.48,44.88C76.93,370.16,84.42,379.15,96.97,386.44z"/>
			<path class="st4" d="M122.88,440.86c5.27,0.24,9.04-2.52,12.33-6.19c3.3-3.69,5.65-8.06,8.52-12.06
				c3.46-4.82,7.27-9.16,13.15-11.11c2.9-0.96,1.98-3.39,1.95-5.45c0.04-0.3,0.08-0.59,0.12-0.89c0.82-1.79,1.16-3.74-0.48-5.08
				c-7.65-6.24-13.69-14.32-22.06-19.68c-4.62-2.96-9.24-6.19-15.05-6.54c-0.33-0.04-0.65-0.08-0.98-0.13c0,0,0,0,0,0
				c-3.21-0.48-4.68,1.52-5.97,4.01c-4.14,8.06-4.83,8.18-11.93,2.39c-6.43-5.24-13.48-9.21-21.84-10.32
				c-4.63-0.62-9.18-0.35-13.34,2.15c0.03,0.43,0.05,0.86,0.08,1.29c-0.47-0.01-0.95-0.03-1.42-0.04c-3.56,1.74-4.55,4.73-3.85,8.37
				c0.45,2.33,2.16,4.93-0.55,6.64c-2.65,1.67-4.95-0.33-7.07-1.81c-3.2-2.25-6.43-4.26-10.6-3.59c-0.64,0.1-1.18,0.29-1.56,0.82
				c0.17,0.56,0.54,1.01,0.95,1.43c-0.41-0.42-0.78-0.87-0.95-1.43c-0.31,0.05-0.61,0.1-0.92,0.14l0,0c-2.87,1.33-2.87,3.47-2,6.14
				c1.38,4.22,0.66,6.14-3.03,8.54c-2.32,1.52-4.83,2.75-7.16,4.26c-2.92,1.89-3.84,4.79-3.35,8.08c0.45,2.97,2.82,4.32,5.33,5.25
				c2.16,0.8,4.43,1.33,6.68,1.84c2.39,0.55,3.77,1.79,3.99,4.38c0.13,1.51,0.64,3.03,1.18,4.46c1.63,4.3,4.34,5.81,8.98,5.49
				c2.99-0.21,5.69-1.32,8.46-2.26c1.46-0.49,2.85-1.21,4.32-1.66c4.36-1.34,5.41-0.81,6.61,3.6c0.86,3.17,2.14,5.81,5.85,6.24
				c0.59,0.02,1.18,0.03,1.77,0.05c3.63,0.98,6.98-0.08,10.25-1.49c4.69-2.03,9.02-4.74,13.43-7.3c1.33-0.77,2.67-1.55,4.07-2.19
				c4.92-2.27,5.24-2.06,5.75,3.3c0.66,6.99,3.35,10.03,9.26,10.44C122.17,440.91,122.52,440.89,122.88,440.86z"/>
			<g>
				<g>
					<path class="st3" d="M245.16,293.06c-0.01-0.32-0.01-0.64-0.02-0.95c-1.63-1.4-3.4-0.98-5.26-0.57
						c-19.84,4.39-39.43,1.94-58.26-4.3c-20.59-6.83-38.73-18.14-53.08-34.93c-6.77-7.92-12.54-16.49-16-26.26
						c-5.95-16.82-6.17-34.01-2.17-51.4c0.75-3.28,3.24-6.58,1.33-10.28c-12.39,8.17-21.91,18.62-26.58,33.04
						c-1.11,3.41-1.69,6.9-2.12,10.41c-0.84,6.8,1.85,11.17,8.13,13.97c1.02,0.45,2.57,0.31,2.99,1.79c-0.11,1.22-1.2,1.5-1.95,1.78
						c-6.6,2.54-7.48,7.69-6.97,13.91c0.65,7.97,0.47,8.01,8.37,7.71c0.38,0.86-0.03,1.7-0.66,1.97c-5,2.13-4.14,5.47-2.41,9.44
						c1.98,4.57,4.48,8.82,7.28,12.87c3.31,4.78,7.45,7.98,13.98,6.31c4.16-1.06,8.53-1.34,13.31-2.05
						c-1.5,4.03-4.88,5.87-7.53,8.07c-3.09,2.57-3.22,4.55-0.44,7.07c6.49,5.9,13.33,11.36,20.63,16.22
						c4.44,2.96,8.89,1.79,13.27-0.06c3.7-1.57,7.27-3.46,11-4.97c1.47-0.6,3.54-2.13,4.66-0.77c1.32,1.6-1.13,2.82-1.91,4.19
						c-0.67,1.2-1.72,2.18-2.58,3.27c-3.32,4.19-3.3,4.68,1.83,6.86c10.76,4.58,22.12,5.06,33.64,4.91
						c15.08-0.2,27.78-6.79,40.08-14.36c3.6-2.22,6.32-5.87,6.63-10.59C243.92,294.34,244.16,293.56,245.16,293.06z"/>
					<path class="st3" d="M245.05,287.31c-3.46-12.36-13.52-17.82-24.05-22.48c-5.03-2.22-10.53-3.36-15.83-4.98
						c-3.57-1.09-5.25,0.39-6.2,3.88c-0.79,2.92-2.37,5.63-3.59,8.43c-0.37,0.85-0.68,1.86-1.85,1.72
						c-1.25-0.14-1.03-1.34-1.27-2.16c-1.12-3.79-0.25-7.69-0.52-11.53c-0.19-2.79-1.23-4.1-3.73-5.07
						c-5.01-1.95-9.96-4.11-14.82-6.41c-2.26-1.07-3.66-1.31-4.4,1.62c-0.3,1.18-0.86,2.88-2.63,2.7c-1.84-0.19-1.72-1.99-2.03-3.25
						c-0.44-1.8-1.25-3.81-0.84-5.47c1.53-6.28-2.04-10.23-5.81-14.24c-5.78-6.15-11.84-12-18.77-17.69
						c-1.6,5.04-3.08,9.75-4.87,15.38c-1.97-3-2.01-5.31-1.88-7.71c0.2-3.54,0.22-7.09,0.47-10.63c0.15-2.1-1.45-3.27-2.61-4.09
						c-10.71-7.5-14.82-18.17-15.35-30.7c-4.11,6.96-4.24,28.22-2.4,37.67c3.88,19.87,14.92,35.54,30.04,48.51
						c16.63,14.27,35.83,23.04,57.44,27C214.85,290.63,229.92,290.45,245.05,287.31z"/>
				</g>
				<path class="st5" d="M245.05,287.31c2.57-0.6,5.1-1.28,7.6-2.04l0.8,3.36c-2.89,0.81-5.73,1.77-8.31,3.48
					c-1.63-1.4-3.4-0.98-5.26-0.57c-19.84,4.39-39.43,1.94-58.26-4.3c-20.59-6.83-38.73-18.15-53.08-34.93
					c-6.77-7.92-12.54-16.49-16-26.26c-5.95-16.82-6.17-34.01-2.17-51.4c0.74-3.24,3.16-6.48,1.4-10.11c1.09-0.2,2.07-0.56,2.52-1.7
					c-0.18-0.68,0.01-1.23,0.67-1.48c0.71-0.26,1.36,0.06,1.09,0.82c-1.47,4.05,0.18,8.48-1.57,12.49
					c-4.11,6.96-4.24,28.21-2.4,37.67c3.88,19.87,14.92,35.54,30.04,48.51c16.63,14.27,35.83,23.04,57.44,27
					C214.85,290.63,229.92,290.45,245.05,287.31z"/>
			</g>
			<g>
				<path class="st4" d="M218.52,302.45c-0.14,0.28-0.29,0.57-0.43,0.85c-2.07,0.55-3.48-0.59-4.98-1.78
					c-15.97-12.57-34.67-18.87-54.35-21.43c-21.51-2.79-42.77-0.48-62.98,8.41c-9.53,4.19-18.46,9.41-25.82,16.7
					c-12.66,12.56-20.33,27.96-24.28,45.36c-0.75,3.29,0.07,7.33-3.27,9.84c-7.62-12.74-11.64-26.29-9.59-41.3
					c0.49-3.55,1.47-6.95,2.61-10.3c2.19-6.49,6.51-9.25,13.39-9.05c1.11,0.03,2.45,0.83,3.48-0.31c0.43-1.15-0.43-1.87-0.98-2.45
					c-4.84-5.15-3.4-10.17-0.24-15.56c4.05-6.9,3.9-7.02,10.89-3.31c0.72-0.61,0.71-1.55,0.26-2.06c-3.58-4.09-1.35-6.72,1.92-9.55
					c3.77-3.25,7.87-6,12.14-8.43c5.06-2.87,10.17-3.95,15.33,0.39c3.29,2.76,7.1,4.91,11.1,7.62c0.4-4.28-1.85-7.41-3.28-10.54
					c-1.67-3.65-0.93-5.5,2.67-6.56c8.41-2.49,16.94-4.44,25.63-5.65c5.28-0.74,8.79,2.25,11.93,5.82c2.66,3.02,5.05,6.27,7.75,9.25
					c1.07,1.18,2.26,3.45,3.86,2.72c1.89-0.87,0.2-3.03,0.1-4.6c-0.08-1.37-0.6-2.71-0.91-4.06c-1.17-5.22-0.94-5.65,4.62-5.39
					c11.68,0.55,22.12,5.05,32.43,10.19c13.49,6.72,22.08,18.18,29.86,30.34c2.28,3.56,3.15,8.04,1.38,12.42
					C217.96,300.75,217.83,301.56,218.52,302.45z"/>
				<path class="st6" d="M215.92,307.58c-8.48,9.63-19.92,10.18-31.43,9.8c-5.49-0.18-10.95-1.55-16.42-2.39
					c-3.69-0.56-4.56-2.63-3.9-6.19c0.55-2.97,0.31-6.1,0.43-9.15c0.04-0.93,0.19-1.97-0.92-2.36c-1.19-0.41-1.51,0.76-2.08,1.4
					c-2.66,2.93-3.57,6.81-5.47,10.16c-1.38,2.43-2.89,3.16-5.56,2.95c-5.36-0.42-10.75-0.62-16.13-0.67
					c-2.5-0.02-3.86-0.4-3.26-3.37c0.24-1.2,0.48-2.97-1.2-3.58c-1.73-0.63-2.41,1.04-3.24,2.04c-1.18,1.43-2.77,2.89-3.13,4.56
					c-1.35,6.32-6.28,8.33-11.41,10.3c-7.88,3.03-15.87,5.66-24.59,7.78c0.75-5.24,1.46-10.12,2.3-15.96
					c-3.07,1.85-4.12,3.9-5.04,6.13c-1.35,3.28-2.88,6.48-4.19,9.78c-0.78,1.95-2.72,2.32-4.12,2.55
					c-12.9,2.1-21.24,9.93-27.16,20.99c-0.67-8.06,8.43-27.26,14.2-34.97c12.13-16.22,28.88-25.54,48.12-30.66
					c21.18-5.63,42.28-5.19,63.47,0.63C190.16,291.47,203.66,298.18,215.92,307.58z"/>
				<path class="st5" d="M215.92,307.58c2.06,1.65,4.04,3.37,5.96,5.14l2.18-2.68c-2.26-1.98-4.39-4.09-5.97-6.74
					c-2.07,0.55-3.48-0.59-4.98-1.78c-15.97-12.57-34.67-18.87-54.35-21.43c-21.51-2.79-42.77-0.48-62.98,8.41
					c-9.53,4.19-18.46,9.41-25.82,16.7c-12.66,12.56-20.33,27.96-24.28,45.36c-0.74,3.24,0.03,7.21-3.13,9.72
					c0.9,0.65,1.62,1.41,1.53,2.63c-0.46,0.53-0.53,1.11-0.04,1.62c0.53,0.55,1.25,0.54,1.34-0.26c0.44-4.29,3.85-7.56,4.01-11.93
					c-0.67-8.06,8.43-27.26,14.2-34.97c12.13-16.22,28.88-25.54,48.12-30.66c21.18-5.63,42.28-5.19,63.47,0.63
					C190.16,291.47,203.66,298.18,215.92,307.58z"/>
			</g>
			<path class="st7" d="M416.44,325.97c-0.27,0.5-0.66,0.71-1.22,0.5c0,0-0.04-0.11-0.04-0.11c0.28-0.49,0.67-0.7,1.22-0.48
				C416.4,325.88,416.44,325.97,416.44,325.97z"/>
			<path class="st6" d="M364.3,159.98c-12.73-0.71-23.91,3.68-34.54,10.24c-3.59,2.21-4.9,4.9-5.08,8.97
				c-0.17,3.71,0.06,7.68-2.09,11.26c-4.4-2.07-3.42-6.61-4.99-10.25c-1.61,1.62-2.96,2.88-4.19,4.24
				c-7.7,8.58-13.87,18.16-19.08,28.44c-4.42,8.73-4.12,10.9,3.69,17.01c1.95,1.53,3.96,2.97,5.93,4.47
				c0.79,0.6,1.95,0.91,1.89,2.35c-2.55,1.25-5.05,1.25-7.68,0.42c-3.32-1.05-6.19-2.82-8.68-5.21c-1.76-1.69-2.92-1.41-3.62,0.91
				c-3.21,10.69-6.04,21.44-6.55,32.68c-0.08,1.8,0.55,2.97,1.9,3.91c1.65,1.15,3.35,2.23,4.99,3.39c2.69,1.9,5.9,2.73,8.76,4.25
				c0.99,0.53,2.49,0.99,2.34,2.55c-0.14,1.42-1.42,1.9-2.53,2.48c-2.13,1.12-4.35,1.44-6.74,1.12c-2.89-0.39-5.56-1.47-8.32-2.97
				c-0.3,2.1-0.06,3.59,0.13,5.09c1.02,8.37,3.44,16.31,7.09,23.89c7.45,15.46,19.09,26.4,35.23,32.43
				c0.95,0.35,1.99,1.15,2.88-0.16c11.04-9.12,19.11-20.37,24.68-33.84c-1.23-0.15-1.99-0.25-2.76-0.32
				c-2.01-0.19-3.68-1.06-4.25-3.04c-0.65-2.28,0.78-3.94,2.48-5.08c1.66-1.11,3.57-1.85,5.4-2.69c1.75-0.81,3.14-1.79,3.55-3.92
				c2.07-10.7,2.68-21.5,2.43-32.38c-0.06-2.78-1.28-2.67-3.22-1.92c-2.03,0.78-4.1,1.38-6.29,1.57c-1.32,0.11-2.65,0.04-3.27-1.19
				c-0.54-1.06,0.27-2.06,0.97-2.93c2.25-2.81,4.76-5.39,8.18-6.69c2.66-1.02,3.29-2.74,3.12-5.42c-0.5-7.87-1.09-15.75-0.84-23.65
				c0.06-1.79-0.26-2.94-2.44-2.84c-2.1,0.1-3.53-1.08-4.24-3c-0.83-2.22,0.25-3.91,1.78-5.38c0.78-0.74,1.57-1.56,2.52-2.02
				c2.23-1.09,2.97-2.84,3.2-5.21c1.4-14.3,6.05-27.59,12.86-40.17C367.8,159.52,365.89,160.07,364.3,159.98z"/>
			<path class="st6" d="M262.83,220.12c-3.85,1.19-6.82,2.99-10.23,3.29c-0.88,0.08-1.94,0.41-2.41-0.72
				c-0.44-1.05,0.31-1.75,0.98-2.38c2.73-2.56,5.82-4.76,9.14-6.31c4.66-2.18,6.27-5.78,6.92-10.49c1.29-9.36,1.59-18.63-0.87-28.54
				c-1.98,3.11-3.67,5.71-6.46,7.21c-1.02,0.55-2.13,1.82-3.3,0.71c-0.85-0.81-0.18-2.07,0.23-3.05c1.65-4.01,3.36-7.99,5.03-11.98
				c0.74-1.76,1.11-3.5,0.16-5.36c-5.77-11.28-14.13-20.24-24.5-27.4c-1.72-1.19-2.69-0.9-3.2,1.3c-0.61,2.66-1.44,5.3-4.7,7.14
				c-0.29-3.81-0.8-7.17-0.7-10.5c0.06-2.21-0.49-3.42-2.52-4.3c-10.47-4.52-21.17-7.88-32.77-7.17c-1.79-0.65-3.49-0.65-2.5,1.86
				c1.63,4.11,1.03,8.21,0.6,12.34c-0.79,7.56-2.74,14.9-4.53,22.26c-0.59,2.41-0.3,3.85,2.54,4.15c2.64,0.28,5.02,1.53,7.42,2.59
				c0.85,0.38,1.72,0.94,1.74,1.99c0.02,1.19-1.07,1.29-1.89,1.69c-3.15,1.53-6.58,1.75-9.96,2.05c-2.25,0.2-3.1,1.13-3.56,3.32
				c-1.68,8.04-2.58,16.16-2.88,24.35c-0.15,3.91,0.63,4.42,4.29,3.24c0.44-0.14,0.83-0.44,1.27-0.57
				c5.12-1.46,10.21-3.1,15.69-2.59c0.06,2-1.32,2.23-2.32,2.85c-4.77,2.92-10.1,4.66-15.11,7.09c-1.89,0.92-2.47,1.87-1.88,3.96
				c1.69,6.03,4.32,11.55,8.03,16.61c1.56,2.13,3.26,2.95,5.93,2.47c5.65-1.01,11.08-2.81,16.56-4.42c2.04-0.6,4.04-1.39,6.76-0.88
				c-1.69,4.28-5.43,5.6-8.73,7.25c-3.51,1.76-7.4,2.56-11.46,3.55c0.59,0.68,0.83,1.08,1.18,1.34c0.74,0.55,1.51,1.08,2.32,1.53
				c14.07,7.83,29.53,9.66,45.23,10.43c0.65,0.03,1.19-0.27,1.52-0.86C255.32,240.22,259.47,230.69,262.83,220.12z"/>
			<g>
				<rect x="113.39" y="202.99" class="st8" width="197.86" height="242.94"/>
				<g>
					<g>
						<g>
							<path class="st9" d="M198.32,256.29c0,5.05-1.22,9.81-3.38,14.01c-6.4-2.61-15.55-4.23-25.71-4.23
								c-11.57,0-21.84,2.12-28.22,5.38c-2.55-4.47-4-9.64-4-15.16c0-16.93,13.72-30.66,30.66-30.66
								C184.59,225.63,198.32,239.36,198.32,256.29z"/>
							<path class="st10" d="M194.93,270.3c-5.08,9.89-15.39,16.66-27.28,16.66c-11.42,0-21.38-6.24-26.65-15.51
								c6.38-3.27,16.65-5.38,28.22-5.38C179.38,266.06,188.53,267.69,194.93,270.3z"/>
							<g>
								<path class="st11" d="M159.2,257.22c-3.8,1.08-6.93-0.52-8.35-4.27c-1.71-4.51-0.84-8.83,2.68-9.79
									c2.73-0.74,3.04-2.38,3.71-4.41c1.81-5.54,6.24-7.88,11.57-8.5c5.3-0.61,9.17,2.03,12.02,6.38
									c0.58,0.88,1.58,7.32,0.88,10.14c-1.03-1.93-1.88-1.55-3.01-0.69c-3.35,2.54-7.36,3.6-11.33,4.67
									c-1.72,0.46-2.99,0.08-3.36-1.96c-0.17-0.93-0.74-1.86-1.84-1.62c-1.22,0.26-0.91,1.4-0.85,2.28
									c0.05,0.69,0.34,1.32,0.61,1.95c1.15,2.7,0.69,3.95-1.94,5.34C159.71,256.89,159.46,257.07,159.2,257.22z"/>
								<path class="st12" d="M180.97,243.63c-3.95,3.51-8.46,5.16-13.18,6.39c-0.15,0.04-0.3,0.08-0.45,0.12
									c-0.12-2.37-2.08-4.25-4.48-4.25c-2.48,0-4.49,2.01-4.49,4.49c0,2.08,1.41,3.82,3.33,4.33c-0.33,0.53-0.82,1.01-1.35,1.48
									c-0.38,0.34-0.94,0.5-1.17,1.03c1.17-0.34,1.82-0.3,1.97,1.32c0.29,3.25,0.47,6.4-1.55,9.23c1.86,4.49,5.13,7.79,9.18,10.24
									c3.13,1.89,5.43,0.32,5.56-3.39c0.05-1.22-0.84-4.42-1.27-6.97c-0.28-1.74-0.36-3.16,0.22-3.43
									c0.05-0.03,0.12-0.05,0.18-0.05c1.85-0.15,2.96-1.38,3.84-2.83c2.5-4.13,3.25-13.96,3.4-14.56
									c0.19-0.79,0.32-1.59,0.38-2.39C181.07,244.13,181.02,243.9,180.97,243.63z"/>
								<path class="st13" d="M173.09,267.65c-0.48-0.24-0.97-0.48-1.46-0.73c-3.78-1.73-6.15-4.04-7.15-6.99
									c1.95,2.09,3.79,2.94,5.17,3.31c1.56,0.42,2.79,0.31,3.66,0.97C172.73,264.49,172.81,265.91,173.09,267.65z"/>
							</g>
						</g>
						<g>
							<path class="st9" d="M198.32,389.46c0,4.7-1.06,9.15-2.95,13.13c-1.8,3.81-4.36,7.18-7.49,9.91
								c-3.75,3.3-8.32,5.7-13.36,6.85c-2.21,0.5-4.5,0.77-6.87,0.77c-0.69,0-1.38-0.02-2.06-0.07h-0.03
								c-0.56-0.04-1.11-0.09-1.66-0.17c-1.35-0.16-2.68-0.41-3.96-0.74c-3.98-1.03-7.64-2.83-10.82-5.25
								c-3.54-2.68-6.47-6.12-8.57-10.07c-2.28-4.29-3.57-9.18-3.57-14.37c0-16.93,13.73-30.67,30.67-30.67
								S198.32,372.53,198.32,389.46z"/>
							<path class="st14" d="M195.37,402.59c-1.8,3.81-4.36,7.18-7.49,9.91c-3.75,3.3-8.32,5.7-13.36,6.85
								c-2.21,0.5-4.5,0.77-6.87,0.77c-0.69,0-1.38-0.02-2.06-0.07h-0.03c-0.56-0.04-1.11-0.09-1.66-0.17
								c-1.35-0.16-2.68-0.41-3.96-0.74c-3.98-1.03-7.64-2.83-10.82-5.25c-3.54-2.68-6.47-6.12-8.57-10.07
								c3.74-1.45,8.43-2.62,13.74-3.39c1.84-0.28,3.76-0.5,5.74-0.67c0.08-0.01,0.16-0.02,0.23-0.02c3.04-0.26,6.23-0.4,9.52-0.4
								h0.41c6.38,0.02,12.38,0.57,17.66,1.5C190.58,401.33,193.09,401.92,195.37,402.59z"/>
							<path class="st15" d="M160.24,407.48c-0.69-1.01-0.21-2.26-0.46-4.37c-0.22-1.84,0.47-3.62,0.55-5.46
								c0.05-1.13,0.02-2.08-1-2.91c-1.52-1.25-2.47-2.95-3.15-4.82c-0.5-1.38-0.84-2.78-1.15-4.21c-0.06-0.28-0.05-0.48,0.06-0.75
								c0.77-1.92,1.56-3.83,2.62-5.62c1.27-2.15,2.73-4.15,4.83-5.58c0.39-0.27,0.83-0.49,1.27-0.67c0.63-0.25,1.15-0.25,1.69,0.36
								c1.97,2.2,4.09,4.29,6.01,6.53c1.21,1.41,1.76,3.18,2.07,5.03c0.44,2.63-0.64,4.82-1.83,7c-0.13,0.23-0.17,0.55-0.36,0.71
								c-1.15,0.97-1.32,2.22-1.21,3.61c0.08,1.01,0.01,2.04,0.02,3.06c0.01,1.99,0.16,1.69,1.87,2.1c0.88,0.21,1.78,0.36,2.61,0.74
								c-0.09,0.01-0.15,0.05-0.19,0.09c-0.14,0.14-0.11,0.37-0.11,0.4c0.02,0.34-1.45,3.85-4.91,5.51
								C166.42,409.71,161.77,409.74,160.24,407.48z"/>
							<path class="st16" d="M161.18,396.08c2.67,0.88,5.2,0.62,7.61-0.81c-0.26,0.94-1.88,2.19-3.17,2.35
								C163.92,397.83,162.34,397.57,161.18,396.08z"/>
							<path class="st17" d="M187.88,412.51c-3.75,3.3-8.32,5.7-13.36,6.85c-0.33-0.31-0.62-0.68-0.88-1.12
								c-0.62-1.07-1.03-2.42-1.34-3.96v-0.01c-0.79-3.94-0.92-9.13-2.3-14.07c-0.06-0.29-0.12-0.57-0.15-0.85
								c-0.28-1.84-0.05-3.33,0.41-4.67c0-0.01,0-0.01,0-0.01c0.14-0.41,0.31-0.82,0.49-1.21c1.01-2.23,2.43-4.23,2.76-7.12
								c-0.14-5.63-4.79-8.96-8.67-13.07c-3.5,0.04-6.05,4.79-7.76,7.76c-0.71,0.96-1.38,2.22-1.63,3.77
								c-0.17,1.03-0.12,2.08,0.11,3.12c0.03,0.16,0.08,0.31,0.12,0.46c0.02,0.1,0.05,0.19,0.08,0.28c0.74,2.43,2.5,4.72,4.95,6.46
								c-0.3,1.72-0.43,3.27-0.43,4.65c-0.01,3,0.58,5.24,1.25,6.89c0.63,1.54,2.01,4.25,1.22,7.33c-0.26,1.03-0.7,1.82-1.03,2.34
								c-0.2,0.56-0.52,1.24-1.03,1.95c-0.25,0.34-0.5,0.64-0.74,0.88c-3.98-1.03-7.64-2.83-10.82-5.25
								c0.11-0.77,0.34-1.58,0.73-2.42c0.69-8.94-0.53-15.44-1.91-19.93c-0.92-2.99-2.78-8.05-0.43-11.27
								c1-1.37,1.67-0.98,2.99-2.42c3.12-3.41,1.07-7.38,2.85-10.13c2.67-4.12,13.6-4.96,19.54,0c4.82,4.03,3.14,9.47,8.74,21.73
								c2.03,4.45,4.17,7.93,5.73,10.25c0.18,0.39,0.34,0.77,0.5,1.14C189.59,405.22,189.27,409.25,187.88,412.51z"/>
						</g>
						<g>
							<path class="st9" d="M198.32,323.13c0,4.89-1.15,9.52-3.18,13.62c-5.02,10.1-15.43,17.04-27.48,17.04
								c-12.04,0-22.46-6.95-27.47-17.04c-2.04-4.11-3.18-8.73-3.18-13.62c0-16.93,13.72-30.66,30.66-30.66
								C184.59,292.47,198.32,306.2,198.32,323.13z"/>
							<path class="st11" d="M195.13,336.75c-5.02,10.1-15.43,17.04-27.48,17.04c-12.04,0-22.46-6.95-27.47-17.04
								c7.32-1.77,16.94-2.84,27.47-2.84C178.19,333.91,187.81,334.98,195.13,336.75z"/>
							<g>
								<path class="st18" d="M175.65,334.15c0.97,3.72-1.99,6.63-6.16,6.27c-3.27-0.28-8.82-4.46-9.57-5.15
									c-0.43-0.4-0.3-1.06,0.2-1.39c2.01-1.31,1.98-3.13,1.5-5.18c-0.22-0.93-0.06-1.95-0.07-2.94c-1.32-2.26-0.08-4.78-0.73-7.13
									c-0.19-0.68,0.76-1.34,1.41-1.08c1.67,0.66,1.92-0.58,2.43-1.54c0.21-0.4,0.43-0.82,0.5-1.27c0.48-3.15,2.83-4.02,5.46-4.1
									c2.03-0.06,4.24-0.82,6.12,0.7c1.55,5.31,0.81,10.53-0.57,15.73c-0.17,0.66-0.53,1.22-1.14,1.64
									C172.57,330.43,172.83,332.65,175.65,334.15z"/>
								<path class="st19" d="M176.74,311.33c-2.94-0.05-5.88-0.6-8.79,0.58c-1.14,0.46-1.72,1.01-1.99,2.18
									c-0.28,1.17-0.68,2.34-1.25,3.4c-0.37,0.68-0.77,1.87-2.07,0.64c-0.81-0.76-1.64,0.12-1.27,0.92
									c1.04,2.26-0.26,4.5,0.2,6.72c-3.18-1.47-3.43-4.72-4.52-7.45c-0.22-0.55-0.25-1.19-0.46-1.74
									c-2.62-6.79,1.35-13.18,8.77-14.14c4.53-0.59,8.53,0.71,12.12,3.37C179.93,307.62,179.56,310.05,176.74,311.33z"/>
								<path class="st20" d="M174.03,333c-0.48-0.24-0.97-0.48-1.46-0.73c-3.78-1.73-6.15-4.04-7.15-6.99
									c1.95,2.09,3.79,2.94,5.17,3.31c1.56,0.42,2.79,0.31,3.66,0.97C173.67,329.85,173.75,331.27,174.03,333z"/>
								<circle class="st18" cx="162.19" cy="318.81" r="3.03"/>
							</g>
						</g>
					</g>
					<path class="st11" d="M220.33,418.2c2.77-3.74,5.14-7.53,8.49-10.5c0.94-0.83,1.92-1.62,2.92-2.38
						c0.59-0.46,1.27-1.4,2.03-0.56c0.98,1.08-0.41,1.75-0.92,2.15c-2.98,2.34-5.42,5.18-7.65,8.18c-1.42,1.91-2.57,4.02-3.9,6
						c-0.93,1.39-2.07,1.7-2.65-0.18c-0.79-2.57-2.17-4.75-3.76-6.85c-0.42-0.55-0.88-1.27-0.22-1.81c0.79-0.65,1.37,0.01,2.02,0.57
						C218.3,414.22,218.53,416.48,220.33,418.2z"/>
					<g>
						<path class="st21" d="M224.3,252.3c4.01,0,8.02,0.07,12.03-0.03c2.02-0.05,2.92,0.57,2.87,2.73
							c-0.19,8.35-0.3,16.71-0.35,25.07c-0.01,1.63-0.54,2.25-2.18,2.23c-8.36-0.07-16.73-0.12-25.09-0.09
							c-1.91,0.01-2.32-0.97-2.31-2.58c0.05-8.25,0.08-16.49,0.08-24.74c0-2.03,0.83-2.8,2.92-2.73c4.01,0.14,8.02,0.04,12.03,0.04
							C224.3,252.24,224.3,252.27,224.3,252.3z M224.17,255.34c0-0.02,0-0.04,0-0.06c-3.22,0-6.43,0.08-9.65-0.03
							c-1.88-0.06-2.68,0.49-2.65,2.52c0.09,6.31,0.06,12.63-0.03,18.94c-0.02,1.72,0.5,2.37,2.29,2.54
							c6.65,0.64,13.31,0.14,19.96,0.3c1.64,0.04,2.45-0.75,2.44-2.54c-0.06-6.43-0.05-12.86,0.04-19.28
							c0.03-1.82-0.68-2.44-2.42-2.41C230.83,255.38,227.5,255.34,224.17,255.34z"/>
						<g>
							<path class="st21" d="M284.66,227.58H211.3c-1.64,0-2.98-1.34-2.98-2.98l0,0c0-1.64,1.34-2.98,2.98-2.98h73.36
								c1.64,0,2.98,1.34,2.98,2.98l0,0C287.64,226.24,286.3,227.58,284.66,227.58z"/>
							<path class="st21" d="M284.66,238.37H211.3c-1.64,0-2.98-1.34-2.98-2.98l0,0c0-1.64,1.34-2.98,2.98-2.98h73.36
								c1.64,0,2.98,1.34,2.98,2.98l0,0C287.64,237.03,286.3,238.37,284.66,238.37z"/>
							<path class="st21" d="M248.56,249.09h-37.33c-1.6,0-2.91-1.31-2.91-2.91v0c0-1.6,1.31-2.91,2.91-2.91h37.33
								c1.6,0,2.91,1.31,2.91,2.91v0C251.47,247.78,250.16,249.09,248.56,249.09z"/>
						</g>
					</g>
					<g>
						<path class="st21" d="M224.3,324.8c4.01,0,8.02,0.07,12.03-0.03c2.02-0.05,2.92,0.57,2.87,2.73
							c-0.19,8.35-0.3,16.71-0.35,25.07c-0.01,1.63-0.54,2.25-2.18,2.23c-8.36-0.07-16.73-0.12-25.09-0.09
							c-1.91,0.01-2.32-0.97-2.31-2.58c0.05-8.25,0.08-16.49,0.08-24.74c0-2.03,0.83-2.8,2.92-2.73c4.01,0.14,8.02,0.04,12.03,0.04
							C224.3,324.74,224.3,324.77,224.3,324.8z M224.17,327.83c0-0.02,0-0.04,0-0.06c-3.22,0-6.43,0.08-9.65-0.03
							c-1.88-0.06-2.68,0.49-2.65,2.52c0.09,6.31,0.06,12.63-0.03,18.94c-0.02,1.72,0.5,2.37,2.29,2.54
							c6.65,0.64,13.31,0.14,19.96,0.3c1.64,0.04,2.45-0.75,2.44-2.54c-0.06-6.43-0.05-12.86,0.04-19.28
							c0.03-1.82-0.68-2.44-2.42-2.41C230.83,327.88,227.5,327.83,224.17,327.83z"/>
						<g>
							<path class="st21" d="M284.66,300.08H211.3c-1.64,0-2.98-1.34-2.98-2.98l0,0c0-1.64,1.34-2.98,2.98-2.98h73.36
								c1.64,0,2.98,1.34,2.98,2.98l0,0C287.64,298.74,286.3,300.08,284.66,300.08z"/>
							<path class="st21" d="M284.66,310.87H211.3c-1.64,0-2.98-1.34-2.98-2.98l0,0c0-1.64,1.34-2.98,2.98-2.98h73.36
								c1.64,0,2.98,1.34,2.98,2.98l0,0C287.64,309.53,286.3,310.87,284.66,310.87z"/>
							<path class="st21" d="M248.56,321.59h-37.33c-1.6,0-2.91-1.31-2.91-2.91l0,0c0-1.6,1.31-2.91,2.91-2.91h37.33
								c1.6,0,2.91,1.31,2.91,2.91l0,0C251.47,320.28,250.16,321.59,248.56,321.59z"/>
						</g>
					</g>
					<g>
						<path class="st21" d="M224.3,397.3c4.01,0,8.02,0.07,12.03-0.03c2.02-0.05,2.92,0.57,2.87,2.73
							c-0.19,8.35-0.3,16.71-0.35,25.07c-0.01,1.63-0.54,2.25-2.18,2.23c-8.36-0.07-16.73-0.12-25.09-0.09
							c-1.91,0.01-2.32-0.97-2.31-2.58c0.05-8.25,0.08-16.49,0.08-24.74c0-2.03,0.83-2.8,2.92-2.73c4.01,0.14,8.02,0.04,12.03,0.04
							C224.3,397.24,224.3,397.27,224.3,397.3z M224.17,400.33c0-0.02,0-0.04,0-0.06c-3.22,0-6.43,0.08-9.65-0.03
							c-1.88-0.06-2.68,0.49-2.65,2.52c0.09,6.31,0.06,12.63-0.03,18.94c-0.02,1.72,0.5,2.37,2.29,2.54
							c6.65,0.64,13.31,0.14,19.96,0.3c1.64,0.04,2.45-0.75,2.44-2.54c-0.06-6.43-0.05-12.86,0.04-19.28
							c0.03-1.82-0.68-2.44-2.42-2.41C230.83,400.38,227.5,400.33,224.17,400.33z"/>
						<g>
							<path class="st21" d="M284.66,372.58H211.3c-1.64,0-2.98-1.34-2.98-2.98l0,0c0-1.64,1.34-2.98,2.98-2.98h73.36
								c1.64,0,2.98,1.34,2.98,2.98l0,0C287.64,371.24,286.3,372.58,284.66,372.58z"/>
							<path class="st21" d="M284.66,383.37H211.3c-1.64,0-2.98-1.34-2.98-2.98l0,0c0-1.64,1.34-2.98,2.98-2.98h73.36
								c1.64,0,2.98,1.34,2.98,2.98l0,0C287.64,382.03,286.3,383.37,284.66,383.37z"/>
							<path class="st21" d="M248.56,394.09h-37.33c-1.6,0-2.91-1.31-2.91-2.91l0,0c0-1.6,1.31-2.91,2.91-2.91h37.33
								c1.6,0,2.91,1.31,2.91,2.91l0,0C251.47,392.78,250.16,394.09,248.56,394.09z"/>
						</g>
					</g>
				</g>
			</g>
			<g>
				<g>
					
						<rect x="164.51" y="194.39" transform="matrix(0.4172 0.9088 -0.9088 0.4172 328.0891 -66.4413)" class="st22" width="102.68" height="56.42"/>
					
						<rect x="179.25" y="204.55" transform="matrix(0.4172 0.9088 -0.9088 0.4172 328.0891 -66.4413)" class="st23" width="73.19" height="36.09"/>
				</g>
				<g>
					<path class="st24" d="M176.79,199.14c8.61,3.81,17.2,7.68,25.84,11.42c4.95,2.14,10.01,0.32,11.98-4.09
						c2.07-4.66,0.05-9.49-5.04-11.87c-9.6-4.49-14.88-5.35-24.98-11.61c-0.99-0.62-1.79-1.15-2.29-1.49
						c7.83-3.57,15.66-7.14,23.49-10.71c-5.48-6.74-11.23-13.29-16.37-20.28c-5.65-7.68-13.75-8.51-22.15-9.32
						c-10.7-1.02-21.38-2.3-32.05-3.56c-2.03-0.24-4.07-0.7-5.88-1.8c-2.37-0.98-3.55,0.31-4.53,2.25
						c-2.89,5.77-4.16,12.12-6.64,18.05c-1.63,3.9-2.84,7.98-4.25,11.98c-0.71,2.02-1.72,4.03-1.09,6.31
						c6.8,1.51,11.65,6.25,17.18,10c7.13,4.83,15.36,7.34,23.94,8.49c4.06,0.55,8.11,1.07,12.06,2.24c1.01,0.3,1.36,0.64,1.13,1.61
						C170.37,197.49,173.28,199.52,176.79,199.14z"/>
					<path class="st11" d="M-33.51,125.95c3.55-7.21,6.91-14.51,10.35-21.77c3.27-7.09,6.59-14.16,9.77-21.29
						c0.79-1.78,1.66-2.04,3.42-1.42c12.76,4.52,25.55,8.95,38.34,13.4c29.9,10.42,59.79,20.88,89.72,31.21
						c2.77,0.96,4.02,2.11,2.74,4.99c0.29,0.66,0.29,1.36,0.06,2.01c-2.13,6.04-4.14,12.13-6.38,18.13
						c-0.25,0.67-0.57,1.3-1.18,1.66c0.02,0.17,0.03,0.34,0.02,0.53c-1.1,5.97-3.89,11.37-5.65,17.12c-0.71,2.31-1.9,4.26-3.64,5.91
						c-11.25-3.98-22.48-7.99-33.74-11.93c-18.84-6.6-37.7-13.16-56.55-19.73c-15.27-5.33-30.55-10.67-45.83-15.98
						C-33.53,128.27-34.47,127.89-33.51,125.95z"/>
					<path class="st25" d="M120.81,131.07c-2.71,7.34-5.42,14.69-8.12,22.03c-2.8,7.8-5.09,15.79-8.64,23.32
						c1.97-1.73,3.97-2.63,6.46-0.8c1.17,0.86,1.82-0.25,2.3-1.21c3.55-10.18,7.07-20.36,10.66-30.52c0.8-2.25,1.97-4.37,2.76-6.63
						c0.6-1.7,0.49-4.48-1.54-5.19C123.41,131.62,122.23,130.9,120.81,131.07z"/>
					<path class="st26" d="M176.79,199.14c-2.27-0.85-4.59-1.6-6.8-2.58c-1.09-0.48-1.93-0.19-2.86,0.19
						c-2.45,5.3-0.91,8.53,4.31,10.79c2.87,1.25,5.48,3.18,8.52,4.19c-0.36-3.29-1.92-6.22-2.71-9.38
						C176.98,201.31,176.1,200.33,176.79,199.14z"/>
					<path class="st12" d="M201.19,200.14c-2.51,5.39-2.37,6.13,1.57,7.97c4.76,2.23,7.75,1.38,9.66-2.72
						c1.72-3.67,0.19-7.14-4-9.09C204.54,194.49,203.58,195,201.19,200.14z"/>
				</g>
			</g>
			<g>
				<g>
					
						<rect x="209.16" y="102.36" transform="matrix(0.2263 0.9741 -0.9741 0.2263 328.7331 -152.7226)" class="st22" width="102.68" height="56.42"/>
					
						<rect x="223.91" y="112.53" transform="matrix(0.2263 0.9741 -0.9741 0.2263 328.7331 -152.7226)" class="st23" width="73.19" height="36.09"/>
				</g>
				<g>
					<path class="st27" d="M252.89,110.73c-2.81-8.09-5.52-16.23-8.56-24.24c-0.41-1.08-0.6-1.9-0.46-2.51c0-0.06,0-0.13,0.01-0.19
						c0.16-1.11,1.01-1.79,2.03-1.94c4.22-1.69,8.6-2.16,13.04-2.98c3.43-0.63,6.81-1.48,10.19-2.31c0.01-0.41,0.06-0.84,0.09-1.26
						c0.4-6.67,0.74-13.34,1.11-20.01c0.25-4.61-1.06-8.62-4.01-12.26c-7.64-9.44-17.07-17.08-25.54-25.69
						c-5.34-5.43-11.13-10.25-14.13-17.82c-6.31-15.94-13.43-31.57-20.15-47.35c-3.15-7.4-6.64-14.67-9.18-22.32
						c-9.01-7.37-18.02-14.74-27.04-22.1c-5.12,6.26-9.8,12.95-15.47,18.66c-5.87,5.92-6.66,10.61-2.18,18.35
						c13.25,22.87,25.22,46.48,37.88,69.69c4.24,7.78,8.65,15.36,8.39,24.68c-0.06,2.3,0.63,4.67,1.36,6.98
						c2.63,8.33,7.49,15.32,12.7,22.16c2.58,3.38,5.24,6.76,6.38,10.99c1.44,4.52,4.32,8.38,5.89,12.83
						c4.19,8.62,8.03,17.41,12,26.14c1.2,2.65,3.21,4.54,5.8,5.73c3.14,1.45,5.99,0.41,8.41-1.66
						C253.2,120.8,253.48,112.43,252.89,110.73z"/>
					<path class="st28" d="M226.03,91.35c-0.45,0.12-0.7,0.31-0.83,0.53c-0.39,0.69,0.08,1.69,0.17,1.88
						c0.5,1.13,1.58,7.56,3.82,25.49c-2.82-0.57-6.37-1.81-8.29-4.86c-0.85-1.34-1.44-2-1.71-5.32c-0.25-3.15-2.11-6.75-3.6-9.83
						c-1.6-3.31-2.21-6.82-3.51-10.15c-1.92-4.94,1.14-8.64,7.25-9.85C222.86,82.57,223.74,87.35,226.03,91.35z"/>
					<path class="st29" d="M245.5,121.12c-0.92,0.24-2.25,0.55-3.36-0.13c-0.49-0.3-0.9-0.83-1.2-1.72
						c-1.05-3.13-2.55-6.37,0.36-9.05c0.95-0.88,2.06-1.43,3.25-1.55c1.87-0.18,3.25,0.71,3.67,0.99c2.22,1.49,3.82,4.83,2.62,7.72
						C249.76,119.99,247,120.72,245.5,121.12z"/>
				</g>
			</g>
			<g>
				<path class="st4" d="M282.91,302.85c0.02-0.32,0.04-0.64,0.06-0.95c1.69-1.32,3.44-0.82,5.28-0.33
					c19.62,5.29,39.3,3.73,58.4-1.66c20.88-5.89,39.52-16.37,54.61-32.49c7.12-7.6,13.28-15.91,17.17-25.51
					c6.71-16.53,7.71-33.7,4.5-51.25c-0.6-3.32-2.94-6.72-0.86-10.33c12.01,8.72,21.04,19.6,25.05,34.21
					c0.95,3.46,1.37,6.97,1.65,10.5c0.53,6.83-2.35,11.07-8.75,13.59c-1.04,0.41-2.58,0.2-3.07,1.65c0.05,1.23,1.13,1.55,1.87,1.87
					c6.48,2.83,7.12,8.02,6.34,14.21c-1.01,7.94-0.83,7.98-8.71,7.32c-0.42,0.84-0.04,1.7,0.57,2c4.9,2.35,3.88,5.65,1.98,9.54
					c-2.19,4.47-4.87,8.61-7.86,12.52c-3.52,4.63-7.8,7.63-14.25,5.67c-4.11-1.25-8.46-1.73-13.2-2.65
					c1.31,4.09,4.61,6.08,7.16,8.41c2.97,2.7,3.01,4.69,0.12,7.08c-6.75,5.59-13.83,10.74-21.35,15.27
					c-4.57,2.75-8.97,1.39-13.26-0.66c-3.63-1.73-7.11-3.78-10.76-5.46c-1.44-0.66-3.44-2.29-4.62-0.98c-1.39,1.54,1,2.86,1.71,4.27
					c0.62,1.22,1.62,2.25,2.43,3.38c3.13,4.34,3.08,4.82-2.13,6.77c-10.96,4.09-22.32,4.05-33.83,3.38
					c-15.05-0.88-27.44-8.04-39.38-16.17c-3.49-2.38-6.05-6.15-6.15-10.88C284.08,304.19,283.88,303.4,282.91,302.85z"/>
				<path class="st6" d="M283.27,297.11c4.01-12.19,14.32-17.19,25.04-21.36c5.12-1.99,10.68-2.88,16.04-4.26
					c3.61-0.93,5.23,0.63,6.02,4.16c0.66,2.95,2.11,5.73,3.2,8.58c0.33,0.87,0.6,1.89,1.77,1.8c1.25-0.09,1.09-1.3,1.37-2.1
					c1.29-3.73,0.6-7.67,1.04-11.5c0.32-2.77,1.41-4.04,3.95-4.9c5.1-1.72,10.13-3.66,15.1-5.73c2.31-0.96,3.71-1.15,4.32,1.82
					c0.25,1.19,0.73,2.92,2.51,2.82c1.84-0.1,1.81-1.91,2.18-3.15c0.52-1.78,1.42-3.74,1.09-5.42c-1.24-6.35,2.5-10.13,6.45-13.96
					c6.05-5.88,12.37-11.45,19.56-16.82c1.37,5.11,2.64,9.88,4.16,15.58c2.1-2.9,2.25-5.21,2.22-7.61
					c-0.04-3.54,0.1-7.09,0.01-10.64c-0.05-2.1,1.59-3.21,2.79-3.97c11.04-7,15.63-17.48,16.72-29.97
					c3.79,7.14,2.96,28.38,0.68,37.74c-4.78,19.68-16.52,34.83-32.21,47.1c-17.26,13.51-36.84,21.39-58.61,24.36
					C313.29,301.8,298.24,300.94,283.27,297.11z"/>
				<path class="st5" d="M422.93,190.67c-0.6-3.27-2.86-6.61-0.94-10.17c-1.08-0.25-2.04-0.66-2.44-1.82
					c0.22-0.67,0.05-1.23-0.6-1.51c-0.7-0.3-1.36,0-1.13,0.77c1.28,4.12-0.57,8.47,1,12.54c3.79,7.14,2.96,28.38,0.68,37.74
					c-4.78,19.68-16.52,34.83-32.21,47.1c-17.26,13.51-36.84,21.39-58.61,24.36c-15.4,2.1-30.45,1.24-45.42-2.59
					c-3.73-1.05-7.37-2.27-10.93-3.66c0.08,1.29,0.14,2.58,0.19,3.87c3.64,1.13,7.27,2.28,10.43,4.58c1.69-1.32,3.44-0.82,5.28-0.33
					c19.62,5.29,39.3,3.73,58.4-1.66c20.88-5.89,39.52-16.37,54.61-32.49c7.12-7.6,13.28-15.91,17.18-25.51
					C425.13,225.39,426.13,208.23,422.93,190.67z"/>
			</g>
			<path class="st3" d="M442.02,335.95c5.17-10.75,7.22-22.35,9.43-33.93c0.4-2.1-0.75-2.32-2.28-2.5
				c-8.77-1.05-17.52-1.9-26.39-0.87c-28.57,3.3-46.75,29.6-43.93,56.52c0.2,1.92,1.03,2.52,2.63,3.16c3.07,1.23,6.3,1.65,9.49,2.2
				c11.62,2,22.83,0.68,31.89-3.98C432.36,351.05,438.02,344.25,442.02,335.95z"/>
			<path class="st4" d="M420.44,430.04c3.8-4.54,3.49-8.59-1.09-13.92c-3.51-4.08-3.43-4.46,1.61-6.42c1.43-0.56,2.92-0.99,4.4-1.41
				c4.9-1.39,9.86-2.63,14.58-4.6c3.29-1.38,6.37-3.05,8.19-6.34c0.4-0.44,0.79-0.87,1.19-1.31c2.27-2.97,1.26-5.72-0.43-8.54
				c-2.34-3.92-2-5.05,1.99-7.26c1.35-0.75,2.83-1.24,4.19-1.95c2.59-1.34,5.27-2.51,7.49-4.52c3.46-3.12,4.25-6.12,2.28-10.28
				c-0.66-1.39-1.39-2.8-2.39-3.95c-1.71-1.96-1.64-3.81-0.38-5.91c1.19-1.98,2.38-3.98,3.31-6.08c1.07-2.44,1.75-5.1-0.08-7.48
				c-2.02-2.64-4.75-3.99-8.14-3.2c-2.7,0.63-5.33,1.58-8.04,2.2c-4.29,0.99-6.18,0.18-8.25-3.75c-1.31-2.48-2.85-3.96-5.8-2.83l0,0
				c-0.25,0.19-0.49,0.37-0.74,0.56c0.29,0.51,0.36,1.09,0.37,1.68c-0.01-0.59-0.08-1.16-0.37-1.68c-0.65-0.09-1.16,0.17-1.67,0.56
				c-3.38,2.54-4.17,6.27-4.77,10.13c-0.4,2.55-0.55,5.6-3.6,6.34c-3.12,0.77-3.8-2.28-5.17-4.21c-2.14-3.03-4.98-4.39-8.7-3.03
				c-0.32,0.35-0.64,0.7-0.96,1.05c-0.29-0.32-0.59-0.64-0.88-0.95c-4.69,1.26-8.04,4.35-10.81,8.11c-5,6.79-7.04,14.62-7.73,22.89
				c-0.76,9.13-1.33,9.54-10,6.93c-2.68-0.81-5.14-1.13-7.03,1.51c0,0,0,0,0,0c-0.2,0.26-0.39,0.53-0.59,0.79
				c-3.78,4.42-4.66,9.99-5.74,15.37c-1.95,9.75-0.33,19.7-1.15,29.54c-0.18,2.12,1.47,3.22,3.33,3.88
				c0.24,0.18,0.48,0.35,0.73,0.53c1.47,1.45,2.58,3.8,5.28,2.38c5.49-2.88,11.26-2.61,17.13-1.76c4.87,0.71,9.65,2.05,14.6,2.24
				c4.92,0.18,9.53-0.62,13.01-4.58C419.91,430.51,420.17,430.27,420.44,430.04z"/>
			<g>
				<g>
					<path class="st22" d="M419.73,288.7c-7.25-5.33-14.51-10.65-21.77-15.97c-0.46,0-0.92,0-1.39,0v-0.02h-116.6v0.11
						c-3.07,0.01-6.14,0.02-9.22,0.03c-2.32,1.76-4.67,3.48-6.96,5.28c-5.07,3.98-10.65,7.28-15.45,11.62
						c0.93,0.69,2.01,0.58,3.07,0.58c55.44,0,110.88,0,166.33,0c1.06,0,2.14,0.13,3.09-0.53C420.46,289.43,420.14,289,419.73,288.7z
						"/>
					<rect x="254.35" y="309.48" class="st22" width="156.52" height="136.69"/>
					<path class="st19" d="M357,359.67c1.28,0.47,0.92,1.58,0.93,2.5c0.01,11.26-0.05,22.52,0.05,33.77
						c0.02,2.34-0.69,3.04-3.03,3.02c-15.07-0.09-30.14-0.08-45.21,0c-2.13,0.01-2.9-0.47-2.89-2.77
						c0.1-15.16,0.09-30.32,0.01-45.47c-0.01-2.11,0.43-2.92,2.75-2.9c15.16,0.11,30.31,0.05,45.47,0.07c1.37,0,3.08-0.37,2.79,1.99
						c-0.49,3.06-3.03,4.45-5.11,6.19c-0.39,0.32-1.01,0-1.45-0.33c-1-1.08-2.31-1.21-3.67-1.21c-10.29-0.01-20.58-0.02-30.86,0.01
						c-2.85,0.01-3.13,0.32-3.14,3.29c-0.03,10.47,0.02,20.93-0.04,31.4c-0.01,2.11,0.67,3.04,2.9,3.03
						c10.46-0.06,20.93-0.05,31.4,0c2.21,0.01,2.92-0.9,2.93-3.02c0.02-7.63-0.19-15.25,0.1-22.87
						C351.88,363.18,354.22,361.22,357,359.67z"/>
					<path class="st30" d="M357,359.67c-1.78,1.84-3.57,3.68-5.35,5.52c-1.03,2.51-3.42,3.78-5.27,5.49
						c-4.08,3.78-8.28,7.45-12.58,10.99c-2.53,2.08-4.86,1.83-6.92-0.64c-2.84-3.4-5.27-7.1-7.83-10.71
						c-1.44-2.03-1.19-4.32,0.38-5.47c1.46-1.07,3.61-0.66,5.16,1.17c1.77,2.09,3.3,4.38,4.82,6.66c1.02,1.53,1.85,1.67,3.34,0.38
						c5.81-5.05,11.73-9.95,17.05-15.54c0.67-0.7,1.34-1.43,2.37-1.61c2.29-1.64,4.02-3.81,5.69-6.04c4.04,0.21,5.71,2.01,3.94,4.38
						c-1.23,1.65-2.33,3.49-4.13,4.67C357.41,359.11,357.23,359.42,357,359.67z"/>
					<path class="st31" d="M352.19,355.92c-3.35,4.29-7.67,7.58-11.62,11.25c-2.6,2.41-5.41,4.59-7.98,7.03
						c-1.43,1.35-2.19,1.1-3.18-0.45c-1.58-2.46-3.34-4.8-5.04-7.18c-1.16-1.62-2.7-2.59-4.51-1.31c-1.78,1.26-1.52,2.99-0.29,4.66
						c2.47,3.36,4.83,6.79,7.36,10.1c2.58,3.37,3.76,3.47,6.91,0.74c5.96-5.16,11.88-10.37,17.82-15.56
						c0.02,8.59,0.01,17.18,0.09,25.77c0.02,1.67-0.62,2.1-2.19,2.09c-11.51-0.05-23.03-0.05-34.54,0.01
						c-1.72,0.01-2.3-0.5-2.29-2.26c0.07-11.6,0.07-23.21,0.01-34.81c-0.01-1.74,0.53-2.28,2.27-2.27
						c11.51,0.06,23.03,0.1,34.54-0.03C351.42,353.67,351.65,354.78,352.19,355.92z"/>
					<rect x="248" y="289.76" class="st23" width="172.93" height="35.46"/>
				</g>
				<g>
					<path class="st22" d="M365.71,259.09c7.96-12.84,15.95-25.67,23.96-38.49c0.98-1.57,0.98-2.7-0.75-3.72
						c-3.88-2.28-7.73-4.64-11.57-7c-11.74-7.22-23.47-14.47-35.22-21.68c-2.87-1.76-3.4-1.66-5.01,0.96
						c-3.23,5.26-6.39,10.57-9.62,15.84c-7.88,12.88-15.77,25.75-23.66,38.62c-4.2,6.86-8.38,13.73-12.6,20.57
						c-0.87,1.41-0.7,2.14,0.83,3.13c1.99,1.29,22.58,14.69,23.85,15.3c1.25,0.53,2.58,0.57,3.9,0.57c9.45,0.01,18.91,0.01,28.36,0
						c1.32,0,2.67,0.04,3.84-0.75c0.79-0.64,1.32-1.47,1.83-2.32C354.25,279.42,363.52,262.62,365.71,259.09z"/>
					<path class="st23" d="M344.78,205.84c0.22,0.14,0.51,0.31,0.8,0.49c7.71,4.77,15.39,9.58,23.14,14.28
						c1.97,1.2,2.42,2.19,1.06,4.36c-7.93,12.62-15.7,25.35-23.51,38.05c-2.64,4.28-5.34,8.53-7.85,12.89
						c-1.32,2.29-2.74,2.17-4.71,0.95c-6.68-4.13-13.38-8.2-20.12-12.22c-3.58-2.13-3.87-2.99-1.66-6.56
						c8.52-13.74,17.05-27.46,25.56-41.2c1.91-3.08,3.72-6.22,5.55-9.35C343.43,206.83,343.81,206.14,344.78,205.84z"/>
					<g>
						<g>
							<path class="st32" d="M369.87,204.68c-0.85-0.23-1.7-0.47-2.55-0.7c0.32-0.19,0.65-0.39,0.98-0.58
								c0.46-0.27,0.92-0.52,1.37-0.76c11.57-3.8,10.97,8.19,34.05-12.85c-2.03,2.7-6.79,8.26-14.98,11.86
								C380.55,205.26,373.23,205.01,369.87,204.68z"/>
						</g>
						<path class="st15" d="M421.44,167.2h-0.71c-24,0.08-66.35,15.98-76.28,20c-7.81,1.69,8.3,5.82,10.64,8.76
							c-2.38,4.28-6.92,7.93-8.97,11.99c0.07,0.03,0.14,0.07,0.2,0.1c0.5,0.24,0.93,0.5,1.29,0.79c0.01,0,0.01,0,0.02,0.01
							c4.92,3.97-3.85,11.44-8.44,8.98c-1.89,2.72,3.32,2.65,5.23,2.91c11.61-0.01,14.77-10.76,22.6-16.47
							c0.12-0.08,0.24-0.17,0.36-0.25c0.3-0.21,0.6-0.41,0.91-0.61c0.44-0.27,0.89-0.52,1.37-0.75c11.57-3.8,10.97,8.19,34.05-12.85
							c-0.13,0.17-0.26,0.34-0.41,0.54c-2.21,2.86-6.86,8.01-14.57,11.33c-9.31,4.01-17.66,3.01-20.95,2.43
							c0.03,0.02,0.07,0.04,0.09,0.06c1.83,1.06,4.45,2.65,7.5,4.73c6.85,4.7,9.67,7.72,12.94,6.9c1.31-0.34,1.85-1.06,3.52-2.69
							c1.31-1.29,6.99-6.36,12.7-9.46c3.19-1.73,7.47-3.02,13.76-3.09c0.22-0.01,0.45-0.01,0.67-0.01c2.57-0.11,4.08,0.19,4.98,0.08
							h0.01c0.03-0.01,0.05-0.01,0.07-0.01c1.22-0.18,1.29-1.16,1.41-5.18C425.58,185.66,423.72,175.96,421.44,167.2z"/>
						<path class="st33" d="M424.02,200.62c-0.38,1.87-0.59,3.78-1.29,5.59c-0.91,0.2-1.47-0.45-1.94-1
							c-0.99-1.16-1.88-2.41-2.18-3.98c-0.04-0.25-0.2-0.47-0.33-0.7c-0.03-0.05-0.05-0.09-0.07-0.14c1.51-0.26,3.01,0.02,4.52,0.06
							c0.4,0.01,0.81,0.1,1.21,0.16h0.01C423.98,200.61,424,200.62,424.02,200.62z"/>
						<path class="st12" d="M347.64,215.68c-0.65,0.87-1.45,1.96-2.93,2.57c-2.56,1.05-5.05-0.18-5.52-0.42
							c2.31-3.3,4.63-6.59,6.94-9.89c0.07,0.03,0.17,0.09,0.28,0.15c0.53,0.29,2.35,1.3,2.91,2.55
							C350.09,212.38,348.43,214.61,347.64,215.68z"/>
						<path class="st34" d="M516.83,199.2c0.18,0.02,0.35,0.05,0.52,0.07c0.01-0.04,0.01-0.07,0.02-0.11
							C517.19,199.16,517.01,199.18,516.83,199.2z M420.74,167.2c1.01,3.56,1.74,7.18,2.38,10.82c0.48,2.64,0.88,5.28,1.14,7.94
							c0.49,4.88,0.84,9.78-0.23,14.64c1.22-0.18,1.29-1.16,1.41-5.18c0.15-9.76-1.7-19.46-3.99-28.22H420.74z"/>
						<path class="st34" d="M602.34,192.08c-28.32,2.36-56.65,4.71-84.97,7.08c-0.18,0.01-0.36,0.03-0.54,0.05
							c-0.34-0.07-0.69-0.12-1.01-0.07c-3.31,0.57-6.66,0.5-9.98,0.86c-3.19,0.34-6.43,0.48-9.65,0.65
							c-3.29,0.18-6.57,0.54-9.86,0.78c-0.44,0.04-0.88,0.07-1.31,0.09c-3.68,0.24-7.35,0.61-11.04,0.87
							c-3.68,0.25-26.58,2.1-29.75,2.38c-3.33,0.31-14.44,1.07-15.5,1.15c-1.99,0.15-3.98,0.5-5.99,0.28
							c0.7-1.81,0.9-3.72,1.29-5.59c0-0.01,0-0.01,0-0.02c1.22-0.18,1.29-1.16,1.41-5.18c0.15-9.76-1.7-19.46-3.99-28.22h-0.71
							c-0.01-0.05-0.03-0.08-0.04-0.13c-0.29-1.7-0.28-1.63,1.52-1.97c2.97-0.56,5.91-1.23,8.88-1.81c2.81-0.55,5.64-1.02,8.45-1.57
							c2.78-0.55,5.53-1.18,8.3-1.76c2.11-0.45,4.24-0.88,6.37-1.28c2.96-0.57,5.93-1.08,8.89-1.65c2.81-0.53,5.62-1.12,8.43-1.63
							c1.89-0.35,3.78-0.7,5.67-1.03l-0.03-0.15l106.4-20.6C589.83,153.11,596.08,172.59,602.34,192.08z"/>
					</g>
					<path class="st34" d="M516.83,199.2c-10.15,0.84-20.3,1.69-30.45,2.53l-0.06-0.31c3.3-0.24,6.58-0.61,9.86-0.78
						c3.22-0.18,6.45-0.31,9.65-0.65c3.32-0.35,6.68-0.29,9.98-0.86C516.14,199.08,516.48,199.14,516.83,199.2z"/>
				</g>
			</g>
		</g>
	</g>
</g>
</svg>
